<!DOCTYPE svg PUBLIC "-//W3C//DTD SVG 20010904//EN" "http://www.w3.org/TR/2001/REC-SVG-20010904/DTD/svg10.dtd">
<svg version="1.0" xmlns="http://www.w3.org/2000/svg" width="800px" height="800px" viewBox="0 0 8000 8000" preserveAspectRatio="xMidYMid meet">
<g id="layer101" fill="#0d141e" stroke="none">
<path d="M0 4000 l0 -4000 4000 0 4000 0 0 4000 0 4000 -4000 0 -4000 0 0 -4000z"/>
</g>
<g id="layer102" fill="#102828" stroke="none">
</g>
<g id="layer103" fill="#272d36" stroke="none">
</g>
<g id="layer104" fill="#000000" stroke="none">
</g>
<g id="layer105" fill="#373d45" stroke="none">
</g>
<g id="layer106" fill="#049f4b" stroke="none">
</g>
<g id="layer107" fill="#4f545b" stroke="none">
</g>
<g id="layer108" fill="#5f636a" stroke="none">
</g>
<g id="layer109" fill="#02d45d" stroke="none">
</g>
<g id="layer110" fill="#00ea64" stroke="none">
<path d="M4292 5318 c-19 -19 -17 -2621 2 -2637 10 -8 278 -10 997 -9 l984 3 0 1325 0 1325 -985 3 c-759 2 -989 -1 -998 -10z"/>
</g>
<g id="layer111" fill="#6a6f75" stroke="none">
</g>
<g id="layer112" fill="#808489" stroke="none">
</g>
<g id="layer113" fill="#8d9094" stroke="none">
</g>
<g id="layer114" fill="#9c9fa4" stroke="none">
</g>
<g id="layer115" fill="#a9abaf" stroke="none">
</g>
<g id="layer116" fill="#d3d4d6" stroke="none">
</g>
<g id="layer117" fill="#ffffff" stroke="none">
<path d="M1955 5318 c-3 -7 -4 -605 -3 -1328 l3 -1315 324 -3 c253 -2 326 1 333 10 4 7 8 232 8 501 l0 487 330 0 330 0 0 -489 c0 -401 2 -491 14 -500 9 -8 105 -11 332 -9 l319 3 0 1325 0 1325 -319 3 c-227 2 -323 -1 -332 -9 -12 -9 -14 -99 -14 -500 l0 -489 -330 0 -330 0 0 484 c0 266 -3 491 -6 500 -5 14 -44 16 -330 16 -251 0 -326 -3 -329 -12z"/>
</g>


</svg>